<?xml version="1.0" standalone="no"?>
<!DOCTYPE svg PUBLIC "-//W3C//DTD SVG 20010904//EN"
 "http://www.w3.org/TR/2001/REC-SVG-20010904/DTD/svg10.dtd">
<svg version="1.0" xmlns="http://www.w3.org/2000/svg"
 width="278.000000pt" height="265.000000pt" viewBox="0 0 278.000000 265.000000"
 preserveAspectRatio="xMidYMid meet">

<g transform="translate(0.000000,265.000000) scale(0.100000,-0.100000)"
fill="#000000" stroke="none">
<path d="M1255 1936 c-69 -18 -93 -29 -146 -68 -117 -84 -179 -206 -179 -349
0 -378 449 -569 725 -308 170 161 178 425 18 599 -106 116 -267 164 -418 126z
m216 -211 c52 -30 100 -63 107 -72 8 -11 12 -56 12 -136 0 -119 0 -119 -29
-145 -16 -15 -68 -49 -115 -75 l-85 -49 -69 37 c-38 21 -89 53 -115 71 -47 34
-47 34 -47 94 0 32 3 61 8 64 4 2 52 -22 107 -55 55 -32 105 -59 113 -59 18 0
86 36 101 53 7 10 11 38 9 73 -3 57 -3 58 -52 86 -81 48 -116 23 -38 -27 35
-22 48 -37 50 -59 4 -34 -31 -76 -64 -76 -22 0 -180 86 -217 118 -12 11 -17
27 -15 51 2 29 11 41 45 63 80 54 158 96 179 97 12 1 64 -24 115 -54z"/>
<path d="M1261 1702 c-105 -63 -122 -82 -101 -106 12 -15 192 -126 204 -126
13 0 36 34 36 53 0 16 -16 31 -60 56 -33 19 -60 38 -60 42 0 10 64 49 80 49 6
0 39 -16 71 -37 l60 -36 -3 -81 -3 -80 -55 -33 c-30 -18 -63 -33 -72 -33 -10
0 -58 25 -108 55 l-90 55 0 -39 c0 -45 8 -53 117 -116 l82 -47 43 24 c24 14
69 40 101 59 l57 33 0 123 0 123 -41 25 c-22 15 -68 41 -102 60 l-62 34 -94
-57z"/>
<path d="M717 962 c-10 -10 -17 -23 -17 -29 0 -22 38 -43 78 -43 31 0 42 -4
42 -15 0 -12 -13 -15 -60 -15 -47 0 -60 -3 -60 -15 0 -12 14 -15 63 -15 67 0
87 10 87 45 0 33 -20 45 -72 45 -36 0 -48 4 -48 15 0 12 13 15 60 15 47 0 60
3 60 15 0 24 -112 21 -133 -3z"/>
<path d="M897 962 c-23 -26 -25 -162 -2 -162 8 0 15 7 15 15 0 11 12 15 48 15
26 0 53 5 60 12 7 7 12 35 12 63 0 28 -5 56 -12 63 -19 19 -102 15 -121 -6z
m109 -57 l0 -45 -48 0 -48 0 0 45 0 45 48 0 49 0 -1 -45z"/>
<path d="M1082 968 c-17 -17 -16 -141 1 -136 6 3 13 17 15 31 3 25 7 27 47 27
40 0 44 -2 47 -27 2 -14 9 -28 16 -31 16 -5 17 119 0 136 -16 16 -110 16 -126
0z m108 -33 c0 -11 -12 -15 -45 -15 -33 0 -45 4 -45 15 0 11 12 15 45 15 33 0
45 -4 45 -15z"/>
<path d="M1272 968 c-17 -17 -16 -141 1 -136 7 3 13 27 15 61 l3 57 54 0 c42
0 55 4 55 15 0 12 -13 15 -58 15 -32 0 -63 -5 -70 -12z"/>
<path d="M1736 961 c-13 -14 -16 -33 -14 -72 3 -57 28 -84 28 -30 0 31 1 31
50 31 49 0 50 -1 50 -30 0 -20 5 -30 15 -30 24 0 21 112 -3 133 -26 24 -104
23 -126 -2z m114 -26 c0 -11 -12 -15 -50 -15 -38 0 -50 4 -50 15 0 11 12 15
50 15 38 0 50 -4 50 -15z"/>
<path d="M1917 974 c-14 -14 -7 -24 18 -24 23 0 25 -4 25 -44 0 -38 -3 -45
-22 -48 -12 -2 -23 -9 -26 -15 -3 -10 13 -13 58 -13 45 0 61 3 58 13 -3 6 -14
13 -26 15 -19 3 -22 10 -22 48 0 41 2 44 26 44 16 0 24 5 22 13 -5 13 -99 23
-111 11z"/>
<path d="M1430 900 c0 -56 3 -70 15 -70 10 0 15 10 15 30 0 28 2 30 40 30 38
0 40 -2 40 -30 0 -16 4 -30 10 -30 5 0 9 32 9 71 0 49 -4 69 -12 66 -7 -2 -11
-14 -11 -25 1 -19 -4 -22 -37 -22 -35 0 -39 3 -39 25 0 16 -6 25 -15 25 -12 0
-15 -14 -15 -70z"/>
</g>
</svg>
